<svg width="77" height="77" viewBox="0 0 77 77" fill="none" xmlns="http://www.w3.org/2000/svg">
<g clip-path="url(#clip0_121_6315)">
<path d="M48.1249 25.6665L32.0833 35.2915L34.7173 33.7034C40.6848 30.0138 48.8725 32.1313 52.6006 38.041C53.4868 39.446 54.0853 41.0129 54.3611 42.651C54.637 44.289 54.5848 45.9655 54.2075 47.5833C53.8302 49.201 53.1354 50.7276 52.1634 52.0747C51.1914 53.4217 49.9616 54.5623 48.5452 55.4302L32.3335 65.4595C26.366 69.1523 18.4992 67.3556 14.7711 61.4458C13.8847 60.0411 13.286 58.4743 13.01 56.8364C12.7339 55.1985 12.7858 53.522 13.1628 51.9044C13.5397 50.2867 14.2342 48.7599 15.2059 47.4128C16.1776 46.0656 17.4071 44.9249 18.8232 44.0567L19.6574 43.5433" stroke="#2C3930" stroke-width="4" stroke-linecap="round" stroke-linejoin="round"/>
<path d="M25.6665 54.5415L41.7082 44.9165L39.0709 46.5078C33.1034 50.2006 24.919 48.0831 21.1877 42.1734C20.3014 40.7685 19.703 39.2015 19.4271 37.5634C19.1513 35.9254 19.2035 34.2489 19.5807 32.6312C19.958 31.0135 20.6528 29.4868 21.6248 28.1397C22.5968 26.7927 23.8267 25.6521 25.243 24.7842L41.4579 14.7517C47.4254 11.0622 55.2891 12.8588 59.0204 18.7686C59.9066 20.1735 60.5051 21.7405 60.7809 23.3785C61.0568 25.0166 61.0045 26.6931 60.6273 28.3108C60.25 29.9285 59.5552 31.4552 58.5832 32.8022C57.6112 34.1492 56.3814 35.2898 54.965 36.1577L54.1308 36.6711" stroke="#2C3930" stroke-width="4" stroke-linecap="round" stroke-linejoin="round"/>
</g>
<defs>
<clipPath id="clip0_121_6315">
<rect width="77" height="77" fill="white"/>
</clipPath>
</defs>
</svg>
