<svg width="112" height="72" viewBox="0 0 112 72" fill="none" xmlns="http://www.w3.org/2000/svg">
<path d="M57.6043 53.387L33.9111 15.3613L0 71.4455H70.4967H105.082L84.5205 39.626L66.6678 40.0832L57.6043 53.387Z" fill="#064402"/>
<path d="M39.7059 17.167C39.7059 26.6534 56.8729 63.2961 56.8729 63.2961C56.8729 63.2961 74.0399 26.642 74.0399 17.167C74.0399 7.692 66.3593 0 56.8843 0C47.4094 0 39.7174 7.692 39.7174 17.167H39.7059Z" fill="#63B25F"/>
<path d="M56.8843 27.888C62.3886 27.888 66.8508 23.4259 66.8508 17.9215C66.8508 12.4172 62.3886 7.95508 56.8843 7.95508C51.38 7.95508 46.9178 12.4172 46.9178 17.9215C46.9178 23.4259 51.38 27.888 56.8843 27.888Z" fill="#064402"/>
<path d="M111.471 71.4452C111.471 63.4903 105.025 57.0327 97.0587 57.0327C89.0924 57.0327 82.6462 63.4789 82.6462 71.4452" fill="#63B25F"/>
<path d="M30.0367 54.541H33.957L44.0034 71.4451H17.7043L30.0367 54.541Z" fill="#63B25F"/>
</svg>
