<svg width="97" height="97" viewBox="0 0 97 97" fill="none" xmlns="http://www.w3.org/2000/svg">
<g clip-path="url(#clip0_120_4)">
<path d="M36.3752 20.2085H28.2918C26.148 20.2085 24.092 21.0601 22.576 22.576C21.0601 24.092 20.2085 26.148 20.2085 28.2918V76.7918C20.2085 78.9357 21.0601 80.9917 22.576 82.5076C24.092 84.0235 26.148 84.8752 28.2918 84.8752H68.7085C70.8523 84.8752 72.9084 84.0235 74.4243 82.5076C75.9402 80.9917 76.7918 78.9357 76.7918 76.7918V28.2918C76.7918 26.148 75.9402 24.092 74.4243 22.576C72.9084 21.0601 70.8523 20.2085 68.7085 20.2085H60.6252" stroke="#2C3930" stroke-width="4" stroke-linecap="round" stroke-linejoin="round"/>
<path d="M52.5417 12.125H44.4583C39.994 12.125 36.375 15.744 36.375 20.2083C36.375 24.6726 39.994 28.2917 44.4583 28.2917H52.5417C57.006 28.2917 60.625 24.6726 60.625 20.2083C60.625 15.744 57.006 12.125 52.5417 12.125Z" stroke="#2C3930" stroke-width="4" stroke-linecap="round" stroke-linejoin="round"/>
<path d="M36.375 56.5833L44.4583 64.6667L60.625 48.5" stroke="#2C3930" stroke-width="4" stroke-linecap="round" stroke-linejoin="round"/>
</g>
<defs>
<clipPath id="clip0_120_4">
<rect width="97" height="97" fill="white"/>
</clipPath>
</defs>
</svg>
