<svg width="35" height="35" viewBox="0 0 35 35" fill="none" xmlns="http://www.w3.org/2000/svg">
<path d="M14.2937 28.3167C17.3792 28.3167 20.2602 27.3223 22.6022 25.6654L31.4126 34.3923C31.8216 34.7974 32.3607 35 32.9184 35C34.1264 35 35 34.0793 35 32.901C35 32.3488 34.8141 31.8333 34.4053 31.4282L25.6505 22.7381C27.4909 20.3446 28.5874 17.3802 28.5874 14.1583C28.5874 6.37033 22.1562 0 14.2937 0C6.41266 0 0 6.37033 0 14.1583C0 21.9462 6.41266 28.3167 14.2937 28.3167ZM14.2937 25.2604C8.14128 25.2604 3.0855 20.2342 3.0855 14.1583C3.0855 8.08258 8.14128 3.05629 14.2937 3.05629C20.4275 3.05629 25.5019 8.08258 25.5019 14.1583C25.5019 20.2342 20.4275 25.2604 14.2937 25.2604Z" fill="#2C3930"/>
</svg>
