<svg width="74" height="74" viewBox="0 0 74 74" fill="none" xmlns="http://www.w3.org/2000/svg">
<path d="M27.7598 12.3332V9.24984C27.7598 8.43209 28.0846 7.64783 28.6629 7.06959C29.2411 6.49135 30.0253 6.1665 30.8431 6.1665H43.1764C43.9942 6.1665 44.7784 6.49135 45.3567 7.06959C45.9349 7.64783 46.2598 8.43209 46.2598 9.24984V12.3332H58.5931C60.2286 12.3332 61.7971 12.9829 62.9536 14.1393C64.1101 15.2958 64.7598 16.8643 64.7598 18.4998V21.5832C64.7598 23.2187 64.1101 24.7872 62.9536 25.9437C61.7971 27.1001 60.2286 27.7498 58.5931 27.7498H58.183L56.0863 59.1998C55.9299 61.541 54.8897 63.7351 53.1762 65.3381C51.4628 66.941 49.2043 67.8329 46.8579 67.8332H27.2233C24.8789 67.8331 22.6221 66.9429 20.9089 65.3426C19.1958 63.7422 18.1543 61.5511 17.9948 59.2122L15.8488 27.7498H15.4264C13.7909 27.7498 12.2224 27.1001 11.0659 25.9437C9.90947 24.7872 9.25977 23.2187 9.25977 21.5832V18.4998C9.25977 16.8643 9.90947 15.2958 11.0659 14.1393C12.2224 12.9829 13.7909 12.3332 15.4264 12.3332H27.7598ZM58.5931 18.4998H15.4264V21.5832H58.5931V18.4998ZM22.0278 27.7498L24.1461 58.7928C24.1992 59.5727 24.5466 60.3032 25.1178 60.8367C25.6891 61.3701 26.4416 61.6668 27.2233 61.6665H46.8579C47.6406 61.6666 48.3939 61.3692 48.9654 60.8344C49.5368 60.2996 49.8834 59.5676 49.9351 58.7867L52.0009 27.7498H22.0309H22.0278ZM30.8431 30.8332C31.6608 30.8332 32.4451 31.158 33.0233 31.7363C33.6016 32.3145 33.9264 33.0988 33.9264 33.9165V55.4998C33.9264 56.3176 33.6016 57.1019 33.0233 57.6801C32.4451 58.2583 31.6608 58.5832 30.8431 58.5832C30.0253 58.5832 29.2411 58.2583 28.6629 57.6801C28.0846 57.1019 27.7598 56.3176 27.7598 55.4998V33.9165C27.7598 33.0988 28.0846 32.3145 28.6629 31.7363C29.2411 31.158 30.0253 30.8332 30.8431 30.8332ZM43.1764 30.8332C43.9942 30.8332 44.7784 31.158 45.3567 31.7363C45.9349 32.3145 46.2598 33.0988 46.2598 33.9165V55.4998C46.2598 56.3176 45.9349 57.1019 45.3567 57.6801C44.7784 58.2583 43.9942 58.5832 43.1764 58.5832C42.3587 58.5832 41.5744 58.2583 40.9962 57.6801C40.4179 57.1019 40.0931 56.3176 40.0931 55.4998V33.9165C40.0931 33.0988 40.4179 32.3145 40.9962 31.7363C41.5744 31.158 42.3587 30.8332 43.1764 30.8332Z" fill="#2C3930"/>
</svg>
