<svg width="74" height="74" viewBox="0 0 74 74" fill="none" xmlns="http://www.w3.org/2000/svg">
<path d="M23.8129 50.7393L29.2427 49.173L61.9353 16.0888C62.1931 15.8246 62.3367 15.4695 62.335 15.1002C62.3333 14.731 62.1864 14.3773 61.926 14.1155L59.9681 12.136C59.8416 12.006 59.6904 11.9025 59.5235 11.8315C59.3565 11.7606 59.1771 11.7236 58.9957 11.7227C58.8143 11.7219 58.6345 11.7571 58.4669 11.8265C58.2993 11.8959 58.1472 11.9979 58.0194 12.1267L25.4132 45.1246L23.8099 50.7362L23.8129 50.7393ZM63.8438 8.21397L65.8018 10.1966C68.5028 12.9315 68.5274 17.3437 65.8511 20.0509L32.1626 54.1464L20.5569 57.4887C19.8484 57.6871 19.0901 57.5962 18.4484 57.2361C17.8068 56.8759 17.3342 56.276 17.1344 55.5678C16.9858 55.0587 16.9836 54.5179 17.1283 54.0076L20.5045 42.1676L54.1036 8.16156C54.7425 7.51824 55.5031 7.00858 56.341 6.66229C57.1789 6.31601 58.0774 6.14003 58.9841 6.14462C59.8907 6.14921 60.7874 6.33428 61.6218 6.68904C62.4561 7.0438 63.2115 7.56114 63.8438 8.21089V8.21397ZM28.3269 11.7691C29.8563 11.7691 31.0958 13.024 31.0958 14.5718C31.0982 14.9377 31.0285 15.3005 30.8906 15.6394C30.7528 15.9784 30.5494 16.2868 30.2923 16.5471C30.0351 16.8074 29.7292 17.0145 29.392 17.1564C29.0547 17.2984 28.6928 17.3725 28.3269 17.3746H17.2516C14.1929 17.3746 11.7139 19.8844 11.7139 22.977V56.6038C11.7139 59.6995 14.1929 62.2093 17.2516 62.2093H50.4776C53.5363 62.2093 56.0184 59.6995 56.0184 56.6038V45.3959C56.0184 43.8481 57.2579 42.5931 58.7872 42.5931C60.3165 42.5931 61.556 43.8481 61.556 45.399V56.6038C61.556 62.7951 56.5949 67.8148 50.4776 67.8148H17.2516C11.1343 67.8148 6.17627 62.7951 6.17627 56.6038V22.977C6.17627 16.7887 11.1343 11.7691 17.2516 11.7691H28.3269V11.7691Z" fill="#2C3930"/>
</svg>
